# MagicaVoxel @ Ephtracy

# group
o 

# material
mtllib lever.mtl
usemtl palette

# normals
vn -1 0 0
vn 1 0 0
vn 0 0 1
vn 0 0 -1
vn 0 -1 0
vn 0 1 0

# texcoords
vt 0.845703 0.5
vt 0.978516 0.5
vt 0.982422 0.5
vt 0.986328 0.5

# verts
v -1.9 0 1.5
v -1.9 0 1.4
v -1.9 0 -1.4
v -1.9 0 -1.5
v -1.9 0.9 1.5
v -1.9 0.9 1.4
v -1.9 0.9 -1.4
v -1.9 0.9 -1.5
v -1.8 0 1.8
v -1.8 0 1.5
v -1.8 0 1.4
v -1.8 0 -1.4
v -1.8 0 -1.5
v -1.8 0 -1.8
v -1.8 0.7 1.8
v -1.8 0.7 1.5
v -1.8 0.7 1.4
v -1.8 0.7 -1.4
v -1.8 0.7 -1.5
v -1.8 0.7 -1.8
v -1.8 0.8 1.8
v -1.8 0.8 1.5
v -1.8 0.8 1.4
v -1.8 0.8 -1.4
v -1.8 0.8 -1.5
v -1.8 0.8 -1.8
v -0.6 0.8 1.4
v -0.6 0.8 -1.4
v -0.6 0.9 1.4
v -0.6 0.9 -1.4
v -0.5 0.9 1.4
v -0.5 0.9 -1.4
v -0.5 1 1.4
v -0.5 1 -1.4
v -0.2 1 0.3
v -0.2 1 0
v -0.2 1.1 0
v -0.2 1.1 -0.1
v -0.2 1.2 -0.1
v -0.2 1.2 -0.2
v -0.2 1.3 0.3
v -0.2 1.3 0.2
v -0.2 1.3 -0.2
v -0.2 1.3 -0.3
v -0.2 1.4 0.2
v -0.2 1.4 0.0999999
v -0.2 1.4 -0.3
v -0.2 1.4 -0.4
v -0.2 1.5 0.0999999
v -0.2 1.5 0
v -0.2 1.5 -0.4
v -0.2 1.5 -0.5
v -0.2 1.6 0
v -0.2 1.6 -0.1
v -0.2 1.6 -0.5
v -0.2 1.6 -0.6
v -0.2 1.7 -0.1
v -0.2 1.7 -0.2
v -0.2 1.7 -0.6
v -0.2 1.7 -0.7
v -0.2 1.8 -0.2
v -0.2 1.8 -0.3
v -0.2 1.8 -0.7
v -0.2 1.8 -0.8
v -0.2 1.9 -0.3
v -0.2 1.9 -0.4
v -0.2 1.9 -0.8
v -0.2 1.9 -0.9
v -0.2 2 -0.4
v -0.2 2 -0.5
v -0.2 2 -0.9
v -0.2 2 -1
v -0.2 2.1 -0.5
v -0.2 2.1 -0.6
v -0.2 2.1 -1
v -0.2 2.1 -1.1
v -0.2 2.2 -0.6
v -0.2 2.2 -0.7
v -0.2 2.2 -1.1
v -0.2 2.2 -1.2
v -0.2 2.3 -0.7
v -0.2 2.3 -0.8
v -0.2 2.3 -1.2
v -0.2 2.3 -1.3
v -0.2 2.4 -0.8
v -0.2 2.4 -0.9
v -0.2 2.4 -1.3
v -0.2 2.4 -1.4
v -0.2 2.5 -0.9
v -0.2 2.5 -1
v -0.2 2.5 -1.4
v -0.2 2.5 -1.5
v -0.2 2.6 -1
v -0.2 2.6 -1.1
v -0.2 2.6 -1.5
v -0.2 2.6 -1.6
v -0.2 2.7 -1.1
v -0.2 2.7 -1.2
v -0.2 2.7 -1.6
v -0.2 2.7 -1.7
v -0.2 2.8 -1.2
v -0.2 2.8 -1.3
v -0.2 2.9 -1.3
v -0.2 2.9 -1.4
v -0.2 3 -1.4
v -0.2 3 -1.7
v -0.1 1 0.4
v -0.1 1 0.3
v -0.1 1.3 0.4
v -0.1 1.3 0.3
v 0.2 1 0.4
v 0.2 1 0.3
v 0.2 1.3 0.4
v 0.2 1.3 0.3
v 0.3 1 0.3
v 0.3 1 0
v 0.3 1.1 0
v 0.3 1.1 -0.1
v 0.3 1.2 -0.1
v 0.3 1.2 -0.2
v 0.3 1.3 0.3
v 0.3 1.3 0.2
v 0.3 1.3 -0.2
v 0.3 1.3 -0.3
v 0.3 1.4 0.2
v 0.3 1.4 0.0999999
v 0.3 1.4 -0.3
v 0.3 1.4 -0.4
v 0.3 1.5 0.0999999
v 0.3 1.5 0
v 0.3 1.5 -0.4
v 0.3 1.5 -0.5
v 0.3 1.6 0
v 0.3 1.6 -0.1
v 0.3 1.6 -0.5
v 0.3 1.6 -0.6
v 0.3 1.7 -0.1
v 0.3 1.7 -0.2
v 0.3 1.7 -0.6
v 0.3 1.7 -0.7
v 0.3 1.8 -0.2
v 0.3 1.8 -0.3
v 0.3 1.8 -0.7
v 0.3 1.8 -0.8
v 0.3 1.9 -0.3
v 0.3 1.9 -0.4
v 0.3 1.9 -0.8
v 0.3 1.9 -0.9
v 0.3 2 -0.4
v 0.3 2 -0.5
v 0.3 2 -0.9
v 0.3 2 -1
v 0.3 2.1 -0.5
v 0.3 2.1 -0.6
v 0.3 2.1 -1
v 0.3 2.1 -1.1
v 0.3 2.2 -0.6
v 0.3 2.2 -0.7
v 0.3 2.2 -1.1
v 0.3 2.2 -1.2
v 0.3 2.3 -0.7
v 0.3 2.3 -0.8
v 0.3 2.3 -1.2
v 0.3 2.3 -1.3
v 0.3 2.4 -0.8
v 0.3 2.4 -0.9
v 0.3 2.4 -1.3
v 0.3 2.4 -1.4
v 0.3 2.5 -0.9
v 0.3 2.5 -1
v 0.3 2.5 -1.4
v 0.3 2.5 -1.5
v 0.3 2.6 -1
v 0.3 2.6 -1.1
v 0.3 2.6 -1.5
v 0.3 2.6 -1.6
v 0.3 2.7 -1.1
v 0.3 2.7 -1.2
v 0.3 2.7 -1.6
v 0.3 2.7 -1.7
v 0.3 2.8 -1.2
v 0.3 2.8 -1.3
v 0.3 2.9 -1.3
v 0.3 2.9 -1.4
v 0.3 3 -1.4
v 0.3 3 -1.7
v 0.6 0.9 1.4
v 0.6 0.9 -1.4
v 0.6 1 1.4
v 0.6 1 -1.4
v 0.7 0.8 1.4
v 0.7 0.8 -1.4
v 0.7 0.9 1.4
v 0.7 0.9 -1.4
v 1.8 0 1.8
v 1.8 0 1.5
v 1.8 0 1.4
v 1.8 0 -1.4
v 1.8 0 -1.5
v 1.8 0 -1.8
v 1.8 0.7 1.8
v 1.8 0.7 1.5
v 1.8 0.7 1.4
v 1.8 0.7 -1.4
v 1.8 0.7 -1.5
v 1.8 0.7 -1.8
v 1.8 0.8 1.8
v 1.8 0.8 1.5
v 1.8 0.8 1.4
v 1.8 0.8 -1.4
v 1.8 0.8 -1.5
v 1.8 0.8 -1.8
v 1.9 0 1.5
v 1.9 0 1.4
v 1.9 0 -1.4
v 1.9 0 -1.5
v 1.9 0.9 1.5
v 1.9 0.9 1.4
v 1.9 0.9 -1.4
v 1.9 0.9 -1.5
v -1.8 0 1.8
v -1.8 0.7 1.8
v -1.8 0.8 1.8
v 1.8 0 1.8
v 1.8 0.7 1.8
v 1.8 0.8 1.8
v -1.9 0 1.5
v -1.9 0.9 1.5
v -1.8 0 1.5
v -1.8 0.7 1.5
v -1.8 0.8 1.5
v 1.8 0 1.5
v 1.8 0.7 1.5
v 1.8 0.8 1.5
v 1.9 0 1.5
v 1.9 0.9 1.5
v -0.5 0.9 1.4
v -0.5 1 1.4
v 0.6 0.9 1.4
v 0.6 1 1.4
v -0.1 1 0.4
v -0.1 1.3 0.4
v 0.2 1 0.4
v 0.2 1.3 0.4
v -0.2 1 0.3
v -0.2 1.3 0.3
v -0.1 1 0.3
v -0.1 1.3 0.3
v 0.2 1 0.3
v 0.2 1.3 0.3
v 0.3 1 0.3
v 0.3 1.3 0.3
v -0.2 1.3 0.2
v -0.2 1.4 0.2
v 0.3 1.3 0.2
v 0.3 1.4 0.2
v -0.2 1.4 0.0999999
v -0.2 1.5 0.0999999
v 0.3 1.4 0.0999999
v 0.3 1.5 0.0999999
v -0.2 1.5 0
v -0.2 1.6 0
v 0.3 1.5 0
v 0.3 1.6 0
v -0.2 1.6 -0.1
v -0.2 1.7 -0.1
v 0.3 1.6 -0.1
v 0.3 1.7 -0.1
v -0.2 1.7 -0.2
v -0.2 1.8 -0.2
v 0.3 1.7 -0.2
v 0.3 1.8 -0.2
v -0.2 1.8 -0.3
v -0.2 1.9 -0.3
v 0.3 1.8 -0.3
v 0.3 1.9 -0.3
v -0.2 1.9 -0.4
v -0.2 2 -0.4
v 0.3 1.9 -0.4
v 0.3 2 -0.4
v -0.2 2 -0.5
v -0.2 2.1 -0.5
v 0.3 2 -0.5
v 0.3 2.1 -0.5
v -0.2 2.1 -0.6
v -0.2 2.2 -0.6
v 0.3 2.1 -0.6
v 0.3 2.2 -0.6
v -0.2 2.2 -0.7
v -0.2 2.3 -0.7
v 0.3 2.2 -0.7
v 0.3 2.3 -0.7
v -0.2 2.3 -0.8
v -0.2 2.4 -0.8
v 0.3 2.3 -0.8
v 0.3 2.4 -0.8
v -0.2 2.4 -0.9
v -0.2 2.5 -0.9
v 0.3 2.4 -0.9
v 0.3 2.5 -0.9
v -0.2 2.5 -1
v -0.2 2.6 -1
v 0.3 2.5 -1
v 0.3 2.6 -1
v -0.2 2.6 -1.1
v -0.2 2.7 -1.1
v 0.3 2.6 -1.1
v 0.3 2.7 -1.1
v -0.2 2.7 -1.2
v -0.2 2.8 -1.2
v 0.3 2.7 -1.2
v 0.3 2.8 -1.2
v -0.2 2.8 -1.3
v -0.2 2.9 -1.3
v 0.3 2.8 -1.3
v 0.3 2.9 -1.3
v -1.9 0 -1.4
v -1.9 0.9 -1.4
v -1.8 0 -1.4
v -1.8 0.7 -1.4
v -1.8 0.8 -1.4
v -0.6 0.8 -1.4
v -0.6 0.9 -1.4
v -0.2 2.9 -1.4
v -0.2 3 -1.4
v 0.3 2.9 -1.4
v 0.3 3 -1.4
v 0.7 0.8 -1.4
v 0.7 0.9 -1.4
v 1.8 0 -1.4
v 1.8 0.7 -1.4
v 1.8 0.8 -1.4
v 1.9 0 -1.4
v 1.9 0.9 -1.4
v -1.9 0 1.4
v -1.9 0.9 1.4
v -1.8 0 1.4
v -1.8 0.7 1.4
v -1.8 0.8 1.4
v -0.6 0.8 1.4
v -0.6 0.9 1.4
v 0.7 0.8 1.4
v 0.7 0.9 1.4
v 1.8 0 1.4
v 1.8 0.7 1.4
v 1.8 0.8 1.4
v 1.9 0 1.4
v 1.9 0.9 1.4
v -0.2 1 0
v -0.2 1.1 0
v 0.3 1 0
v 0.3 1.1 0
v -0.2 1.1 -0.1
v -0.2 1.2 -0.1
v 0.3 1.1 -0.1
v 0.3 1.2 -0.1
v -0.2 1.2 -0.2
v -0.2 1.3 -0.2
v 0.3 1.2 -0.2
v 0.3 1.3 -0.2
v -0.2 1.3 -0.3
v -0.2 1.4 -0.3
v 0.3 1.3 -0.3
v 0.3 1.4 -0.3
v -0.2 1.4 -0.4
v -0.2 1.5 -0.4
v 0.3 1.4 -0.4
v 0.3 1.5 -0.4
v -0.2 1.5 -0.5
v -0.2 1.6 -0.5
v 0.3 1.5 -0.5
v 0.3 1.6 -0.5
v -0.2 1.6 -0.6
v -0.2 1.7 -0.6
v 0.3 1.6 -0.6
v 0.3 1.7 -0.6
v -0.2 1.7 -0.7
v -0.2 1.8 -0.7
v 0.3 1.7 -0.7
v 0.3 1.8 -0.7
v -0.2 1.8 -0.8
v -0.2 1.9 -0.8
v 0.3 1.8 -0.8
v 0.3 1.9 -0.8
v -0.2 1.9 -0.9
v -0.2 2 -0.9
v 0.3 1.9 -0.9
v 0.3 2 -0.9
v -0.2 2 -1
v -0.2 2.1 -1
v 0.3 2 -1
v 0.3 2.1 -1
v -0.2 2.1 -1.1
v -0.2 2.2 -1.1
v 0.3 2.1 -1.1
v 0.3 2.2 -1.1
v -0.2 2.2 -1.2
v -0.2 2.3 -1.2
v 0.3 2.2 -1.2
v 0.3 2.3 -1.2
v -0.2 2.3 -1.3
v -0.2 2.4 -1.3
v 0.3 2.3 -1.3
v 0.3 2.4 -1.3
v -0.5 0.9 -1.4
v -0.5 1 -1.4
v -0.2 2.4 -1.4
v -0.2 2.5 -1.4
v 0.3 2.4 -1.4
v 0.3 2.5 -1.4
v 0.6 0.9 -1.4
v 0.6 1 -1.4
v -1.9 0 -1.5
v -1.9 0.9 -1.5
v -1.8 0 -1.5
v -1.8 0.7 -1.5
v -1.8 0.8 -1.5
v -0.2 2.5 -1.5
v -0.2 2.6 -1.5
v 0.3 2.5 -1.5
v 0.3 2.6 -1.5
v 1.8 0 -1.5
v 1.8 0.7 -1.5
v 1.8 0.8 -1.5
v 1.9 0 -1.5
v 1.9 0.9 -1.5
v -0.2 2.6 -1.6
v -0.2 2.7 -1.6
v 0.3 2.6 -1.6
v 0.3 2.7 -1.6
v -0.2 2.7 -1.7
v -0.2 3 -1.7
v 0.3 2.7 -1.7
v 0.3 3 -1.7
v -1.8 0 -1.8
v -1.8 0.7 -1.8
v -1.8 0.8 -1.8
v 1.8 0 -1.8
v 1.8 0.7 -1.8
v 1.8 0.8 -1.8
v -1.8 0 1.8
v 1.8 0 1.8
v -1.9 0 1.5
v -1.8 0 1.5
v 1.8 0 1.5
v 1.9 0 1.5
v -1.9 0 1.4
v -1.8 0 1.4
v 1.8 0 1.4
v 1.9 0 1.4
v -1.9 0 -1.4
v -1.8 0 -1.4
v 1.8 0 -1.4
v 1.9 0 -1.4
v -1.9 0 -1.5
v -1.8 0 -1.5
v 1.8 0 -1.5
v 1.9 0 -1.5
v -1.8 0 -1.8
v 1.8 0 -1.8
v -0.2 1.1 0
v 0.3 1.1 0
v -0.2 1.1 -0.1
v 0.3 1.1 -0.1
v -0.2 1.2 -0.1
v 0.3 1.2 -0.1
v -0.2 1.2 -0.2
v 0.3 1.2 -0.2
v -0.2 1.3 -0.2
v 0.3 1.3 -0.2
v -0.2 1.3 -0.3
v 0.3 1.3 -0.3
v -0.2 1.4 -0.3
v 0.3 1.4 -0.3
v -0.2 1.4 -0.4
v 0.3 1.4 -0.4
v -0.2 1.5 -0.4
v 0.3 1.5 -0.4
v -0.2 1.5 -0.5
v 0.3 1.5 -0.5
v -0.2 1.6 -0.5
v 0.3 1.6 -0.5
v -0.2 1.6 -0.6
v 0.3 1.6 -0.6
v -0.2 1.7 -0.6
v 0.3 1.7 -0.6
v -0.2 1.7 -0.7
v 0.3 1.7 -0.7
v -0.2 1.8 -0.7
v 0.3 1.8 -0.7
v -0.2 1.8 -0.8
v 0.3 1.8 -0.8
v -0.2 1.9 -0.8
v 0.3 1.9 -0.8
v -0.2 1.9 -0.9
v 0.3 1.9 -0.9
v -0.2 2 -0.9
v 0.3 2 -0.9
v -0.2 2 -1
v 0.3 2 -1
v -0.2 2.1 -1
v 0.3 2.1 -1
v -0.2 2.1 -1.1
v 0.3 2.1 -1.1
v -0.2 2.2 -1.1
v 0.3 2.2 -1.1
v -0.2 2.2 -1.2
v 0.3 2.2 -1.2
v -0.2 2.3 -1.2
v 0.3 2.3 -1.2
v -0.2 2.3 -1.3
v 0.3 2.3 -1.3
v -0.2 2.4 -1.3
v 0.3 2.4 -1.3
v -0.2 2.4 -1.4
v 0.3 2.4 -1.4
v -0.2 2.5 -1.4
v 0.3 2.5 -1.4
v -0.2 2.5 -1.5
v 0.3 2.5 -1.5
v -0.2 2.6 -1.5
v 0.3 2.6 -1.5
v -0.2 2.6 -1.6
v 0.3 2.6 -1.6
v -0.2 2.7 -1.6
v 0.3 2.7 -1.6
v -0.2 2.7 -1.7
v 0.3 2.7 -1.7
v -1.8 0.8 1.8
v 1.8 0.8 1.8
v -1.8 0.8 1.5
v 1.8 0.8 1.5
v -1.8 0.8 1.4
v -0.6 0.8 1.4
v 0.7 0.8 1.4
v 1.8 0.8 1.4
v -1.8 0.8 -1.4
v -0.6 0.8 -1.4
v 0.7 0.8 -1.4
v 1.8 0.8 -1.4
v -1.8 0.8 -1.5
v 1.8 0.8 -1.5
v -1.8 0.8 -1.8
v 1.8 0.8 -1.8
v -1.9 0.9 1.5
v 1.9 0.9 1.5
v -1.9 0.9 1.4
v -0.6 0.9 1.4
v -0.5 0.9 1.4
v 0.6 0.9 1.4
v 0.7 0.9 1.4
v 1.9 0.9 1.4
v -1.9 0.9 -1.4
v -0.6 0.9 -1.4
v -0.5 0.9 -1.4
v 0.6 0.9 -1.4
v 0.7 0.9 -1.4
v 1.9 0.9 -1.4
v -1.9 0.9 -1.5
v 1.9 0.9 -1.5
v -0.5 1 1.4
v 0.6 1 1.4
v -0.1 1 0.4
v 0.2 1 0.4
v -0.2 1 0.3
v -0.1 1 0.3
v 0.2 1 0.3
v 0.3 1 0.3
v -0.2 1 0
v 0.3 1 0
v -0.5 1 -1.4
v 0.6 1 -1.4
v -0.1 1.3 0.4
v 0.2 1.3 0.4
v -0.2 1.3 0.3
v -0.1 1.3 0.3
v 0.2 1.3 0.3
v 0.3 1.3 0.3
v -0.2 1.3 0.2
v 0.3 1.3 0.2
v -0.2 1.4 0.2
v 0.3 1.4 0.2
v -0.2 1.4 0.0999999
v 0.3 1.4 0.0999999
v -0.2 1.5 0.0999999
v 0.3 1.5 0.0999999
v -0.2 1.5 0
v 0.3 1.5 0
v -0.2 1.6 0
v 0.3 1.6 0
v -0.2 1.6 -0.1
v 0.3 1.6 -0.1
v -0.2 1.7 -0.1
v 0.3 1.7 -0.1
v -0.2 1.7 -0.2
v 0.3 1.7 -0.2
v -0.2 1.8 -0.2
v 0.3 1.8 -0.2
v -0.2 1.8 -0.3
v 0.3 1.8 -0.3
v -0.2 1.9 -0.3
v 0.3 1.9 -0.3
v -0.2 1.9 -0.4
v 0.3 1.9 -0.4
v -0.2 2 -0.4
v 0.3 2 -0.4
v -0.2 2 -0.5
v 0.3 2 -0.5
v -0.2 2.1 -0.5
v 0.3 2.1 -0.5
v -0.2 2.1 -0.6
v 0.3 2.1 -0.6
v -0.2 2.2 -0.6
v 0.3 2.2 -0.6
v -0.2 2.2 -0.7
v 0.3 2.2 -0.7
v -0.2 2.3 -0.7
v 0.3 2.3 -0.7
v -0.2 2.3 -0.8
v 0.3 2.3 -0.8
v -0.2 2.4 -0.8
v 0.3 2.4 -0.8
v -0.2 2.4 -0.9
v 0.3 2.4 -0.9
v -0.2 2.5 -0.9
v 0.3 2.5 -0.9
v -0.2 2.5 -1
v 0.3 2.5 -1
v -0.2 2.6 -1
v 0.3 2.6 -1
v -0.2 2.6 -1.1
v 0.3 2.6 -1.1
v -0.2 2.7 -1.1
v 0.3 2.7 -1.1
v -0.2 2.7 -1.2
v 0.3 2.7 -1.2
v -0.2 2.8 -1.2
v 0.3 2.8 -1.2
v -0.2 2.8 -1.3
v 0.3 2.8 -1.3
v -0.2 2.9 -1.3
v 0.3 2.9 -1.3
v -0.2 2.9 -1.4
v 0.3 2.9 -1.4
v -0.2 3 -1.4
v 0.3 3 -1.4
v -0.2 3 -1.7
v 0.3 3 -1.7

# faces
f 5/3/1 2/3/1 1/3/1
f 6/3/1 2/3/1 5/3/1
f 7/3/1 4/3/1 3/3/1
f 8/3/1 4/3/1 7/3/1
f 15/3/1 10/3/1 9/3/1
f 16/3/1 10/3/1 15/3/1
f 17/3/1 12/3/1 11/3/1
f 18/3/1 12/3/1 17/3/1
f 19/3/1 14/3/1 13/3/1
f 20/3/1 14/3/1 19/3/1
f 21/2/1 16/2/1 15/2/1
f 22/2/1 16/2/1 21/2/1
f 23/2/1 18/2/1 17/2/1
f 24/2/1 18/2/1 23/2/1
f 25/2/1 20/2/1 19/2/1
f 26/2/1 20/2/1 25/2/1
f 29/3/1 28/3/1 27/3/1
f 30/3/1 28/3/1 29/3/1
f 33/4/1 32/4/1 31/4/1
f 34/4/1 32/4/1 33/4/1
f 37/1/1 36/1/1 35/1/1
f 39/1/1 38/1/1 37/1/1
f 41/1/1 37/1/1 35/1/1
f 41/1/1 40/1/1 39/1/1
f 41/1/1 39/1/1 37/1/1
f 42/1/1 40/1/1 41/1/1
f 43/1/1 40/1/1 42/1/1
f 45/1/1 44/1/1 43/1/1
f 45/1/1 43/1/1 42/1/1
f 46/1/1 44/1/1 45/1/1
f 47/1/1 44/1/1 46/1/1
f 49/1/1 48/1/1 47/1/1
f 49/1/1 47/1/1 46/1/1
f 50/1/1 48/1/1 49/1/1
f 51/1/1 48/1/1 50/1/1
f 53/1/1 52/1/1 51/1/1
f 53/1/1 51/1/1 50/1/1
f 54/1/1 52/1/1 53/1/1
f 55/1/1 52/1/1 54/1/1
f 57/1/1 56/1/1 55/1/1
f 57/1/1 55/1/1 54/1/1
f 58/1/1 56/1/1 57/1/1
f 59/1/1 56/1/1 58/1/1
f 61/1/1 60/1/1 59/1/1
f 61/1/1 59/1/1 58/1/1
f 62/1/1 60/1/1 61/1/1
f 63/1/1 60/1/1 62/1/1
f 65/1/1 64/1/1 63/1/1
f 65/1/1 63/1/1 62/1/1
f 66/1/1 64/1/1 65/1/1
f 67/1/1 64/1/1 66/1/1
f 69/1/1 68/1/1 67/1/1
f 69/1/1 67/1/1 66/1/1
f 70/1/1 68/1/1 69/1/1
f 71/1/1 68/1/1 70/1/1
f 73/1/1 72/1/1 71/1/1
f 73/1/1 71/1/1 70/1/1
f 74/1/1 72/1/1 73/1/1
f 75/1/1 72/1/1 74/1/1
f 77/1/1 76/1/1 75/1/1
f 77/1/1 75/1/1 74/1/1
f 78/1/1 76/1/1 77/1/1
f 79/1/1 76/1/1 78/1/1
f 81/1/1 80/1/1 79/1/1
f 81/1/1 79/1/1 78/1/1
f 82/1/1 80/1/1 81/1/1
f 83/1/1 80/1/1 82/1/1
f 85/1/1 84/1/1 83/1/1
f 85/1/1 83/1/1 82/1/1
f 86/1/1 84/1/1 85/1/1
f 87/1/1 84/1/1 86/1/1
f 89/1/1 88/1/1 87/1/1
f 89/1/1 87/1/1 86/1/1
f 90/1/1 88/1/1 89/1/1
f 91/1/1 88/1/1 90/1/1
f 93/1/1 92/1/1 91/1/1
f 93/1/1 91/1/1 90/1/1
f 94/1/1 92/1/1 93/1/1
f 95/1/1 92/1/1 94/1/1
f 97/1/1 96/1/1 95/1/1
f 97/1/1 95/1/1 94/1/1
f 98/1/1 96/1/1 97/1/1
f 99/1/1 96/1/1 98/1/1
f 101/1/1 100/1/1 99/1/1
f 101/1/1 99/1/1 98/1/1
f 102/1/1 100/1/1 101/1/1
f 103/1/1 100/1/1 102/1/1
f 104/1/1 100/1/1 103/1/1
f 105/1/1 100/1/1 104/1/1
f 106/1/1 100/1/1 105/1/1
f 109/1/1 108/1/1 107/1/1
f 110/1/1 108/1/1 109/1/1
f 111/1/2 112/1/2 113/1/2
f 113/1/2 112/1/2 114/1/2
f 115/1/2 116/1/2 117/1/2
f 117/1/2 118/1/2 119/1/2
f 115/1/2 117/1/2 121/1/2
f 119/1/2 120/1/2 121/1/2
f 117/1/2 119/1/2 121/1/2
f 121/1/2 120/1/2 122/1/2
f 122/1/2 120/1/2 123/1/2
f 123/1/2 124/1/2 125/1/2
f 122/1/2 123/1/2 125/1/2
f 125/1/2 124/1/2 126/1/2
f 126/1/2 124/1/2 127/1/2
f 127/1/2 128/1/2 129/1/2
f 126/1/2 127/1/2 129/1/2
f 129/1/2 128/1/2 130/1/2
f 130/1/2 128/1/2 131/1/2
f 131/1/2 132/1/2 133/1/2
f 130/1/2 131/1/2 133/1/2
f 133/1/2 132/1/2 134/1/2
f 134/1/2 132/1/2 135/1/2
f 135/1/2 136/1/2 137/1/2
f 134/1/2 135/1/2 137/1/2
f 137/1/2 136/1/2 138/1/2
f 138/1/2 136/1/2 139/1/2
f 139/1/2 140/1/2 141/1/2
f 138/1/2 139/1/2 141/1/2
f 141/1/2 140/1/2 142/1/2
f 142/1/2 140/1/2 143/1/2
f 143/1/2 144/1/2 145/1/2
f 142/1/2 143/1/2 145/1/2
f 145/1/2 144/1/2 146/1/2
f 146/1/2 144/1/2 147/1/2
f 147/1/2 148/1/2 149/1/2
f 146/1/2 147/1/2 149/1/2
f 149/1/2 148/1/2 150/1/2
f 150/1/2 148/1/2 151/1/2
f 151/1/2 152/1/2 153/1/2
f 150/1/2 151/1/2 153/1/2
f 153/1/2 152/1/2 154/1/2
f 154/1/2 152/1/2 155/1/2
f 155/1/2 156/1/2 157/1/2
f 154/1/2 155/1/2 157/1/2
f 157/1/2 156/1/2 158/1/2
f 158/1/2 156/1/2 159/1/2
f 159/1/2 160/1/2 161/1/2
f 158/1/2 159/1/2 161/1/2
f 161/1/2 160/1/2 162/1/2
f 162/1/2 160/1/2 163/1/2
f 163/1/2 164/1/2 165/1/2
f 162/1/2 163/1/2 165/1/2
f 165/1/2 164/1/2 166/1/2
f 166/1/2 164/1/2 167/1/2
f 167/1/2 168/1/2 169/1/2
f 166/1/2 167/1/2 169/1/2
f 169/1/2 168/1/2 170/1/2
f 170/1/2 168/1/2 171/1/2
f 171/1/2 172/1/2 173/1/2
f 170/1/2 171/1/2 173/1/2
f 173/1/2 172/1/2 174/1/2
f 174/1/2 172/1/2 175/1/2
f 175/1/2 176/1/2 177/1/2
f 174/1/2 175/1/2 177/1/2
f 177/1/2 176/1/2 178/1/2
f 178/1/2 176/1/2 179/1/2
f 179/1/2 180/1/2 181/1/2
f 178/1/2 179/1/2 181/1/2
f 181/1/2 180/1/2 182/1/2
f 182/1/2 180/1/2 183/1/2
f 183/1/2 180/1/2 184/1/2
f 184/1/2 180/1/2 185/1/2
f 185/1/2 180/1/2 186/1/2
f 187/4/2 188/4/2 189/4/2
f 189/4/2 188/4/2 190/4/2
f 191/3/2 192/3/2 193/3/2
f 193/3/2 192/3/2 194/3/2
f 195/3/2 196/3/2 201/3/2
f 201/3/2 196/3/2 202/3/2
f 197/3/2 198/3/2 203/3/2
f 203/3/2 198/3/2 204/3/2
f 199/3/2 200/3/2 205/3/2
f 205/3/2 200/3/2 206/3/2
f 201/2/2 202/2/2 207/2/2
f 207/2/2 202/2/2 208/2/2
f 203/2/2 204/2/2 209/2/2
f 209/2/2 204/2/2 210/2/2
f 205/2/2 206/2/2 211/2/2
f 211/2/2 206/2/2 212/2/2
f 213/3/2 214/3/2 217/3/2
f 217/3/2 214/3/2 218/3/2
f 215/3/2 216/3/2 219/3/2
f 219/3/2 216/3/2 220/3/2
f 224/3/3 222/3/3 221/3/3
f 225/2/3 223/2/3 222/2/3
f 225/3/3 222/3/3 224/3/3
f 226/2/3 223/2/3 225/2/3
f 229/3/3 228/3/3 227/3/3
f 230/3/3 228/3/3 229/3/3
f 231/3/3 228/3/3 230/3/3
f 234/3/3 228/3/3 231/3/3
f 235/3/3 233/3/3 232/3/3
f 235/3/3 234/3/3 233/3/3
f 236/3/3 228/3/3 234/3/3
f 236/3/3 234/3/3 235/3/3
f 239/4/3 238/4/3 237/4/3
f 240/4/3 238/4/3 239/4/3
f 243/1/3 242/1/3 241/1/3
f 244/1/3 242/1/3 243/1/3
f 247/1/3 246/1/3 245/1/3
f 248/1/3 246/1/3 247/1/3
f 251/1/3 250/1/3 249/1/3
f 252/1/3 250/1/3 251/1/3
f 255/1/3 254/1/3 253/1/3
f 256/1/3 254/1/3 255/1/3
f 259/1/3 258/1/3 257/1/3
f 260/1/3 258/1/3 259/1/3
f 263/1/3 262/1/3 261/1/3
f 264/1/3 262/1/3 263/1/3
f 267/1/3 266/1/3 265/1/3
f 268/1/3 266/1/3 267/1/3
f 271/1/3 270/1/3 269/1/3
f 272/1/3 270/1/3 271/1/3
f 275/1/3 274/1/3 273/1/3
f 276/1/3 274/1/3 275/1/3
f 279/1/3 278/1/3 277/1/3
f 280/1/3 278/1/3 279/1/3
f 283/1/3 282/1/3 281/1/3
f 284/1/3 282/1/3 283/1/3
f 287/1/3 286/1/3 285/1/3
f 288/1/3 286/1/3 287/1/3
f 291/1/3 290/1/3 289/1/3
f 292/1/3 290/1/3 291/1/3
f 295/1/3 294/1/3 293/1/3
f 296/1/3 294/1/3 295/1/3
f 299/1/3 298/1/3 297/1/3
f 300/1/3 298/1/3 299/1/3
f 303/1/3 302/1/3 301/1/3
f 304/1/3 302/1/3 303/1/3
f 307/1/3 306/1/3 305/1/3
f 308/1/3 306/1/3 307/1/3
f 311/1/3 310/1/3 309/1/3
f 312/1/3 310/1/3 311/1/3
f 315/1/3 314/1/3 313/1/3
f 316/1/3 314/1/3 315/1/3
f 319/3/3 318/3/3 317/3/3
f 320/3/3 318/3/3 319/3/3
f 321/3/3 318/3/3 320/3/3
f 322/3/3 318/3/3 321/3/3
f 323/3/3 318/3/3 322/3/3
f 326/1/3 325/1/3 324/1/3
f 327/1/3 325/1/3 326/1/3
f 332/3/3 329/3/3 328/3/3
f 333/3/3 331/3/3 330/3/3
f 333/3/3 332/3/3 331/3/3
f 334/3/3 329/3/3 332/3/3
f 334/3/3 332/3/3 333/3/3
f 335/3/4 336/3/4 337/3/4
f 337/3/4 336/3/4 338/3/4
f 338/3/4 336/3/4 339/3/4
f 339/3/4 336/3/4 340/3/4
f 340/3/4 336/3/4 341/3/4
f 342/3/4 343/3/4 346/3/4
f 344/3/4 345/3/4 347/3/4
f 345/3/4 346/3/4 347/3/4
f 346/3/4 343/3/4 348/3/4
f 347/3/4 346/3/4 348/3/4
f 349/1/4 350/1/4 351/1/4
f 351/1/4 350/1/4 352/1/4
f 353/1/4 354/1/4 355/1/4
f 355/1/4 354/1/4 356/1/4
f 357/1/4 358/1/4 359/1/4
f 359/1/4 358/1/4 360/1/4
f 361/1/4 362/1/4 363/1/4
f 363/1/4 362/1/4 364/1/4
f 365/1/4 366/1/4 367/1/4
f 367/1/4 366/1/4 368/1/4
f 369/1/4 370/1/4 371/1/4
f 371/1/4 370/1/4 372/1/4
f 373/1/4 374/1/4 375/1/4
f 375/1/4 374/1/4 376/1/4
f 377/1/4 378/1/4 379/1/4
f 379/1/4 378/1/4 380/1/4
f 381/1/4 382/1/4 383/1/4
f 383/1/4 382/1/4 384/1/4
f 385/1/4 386/1/4 387/1/4
f 387/1/4 386/1/4 388/1/4
f 389/1/4 390/1/4 391/1/4
f 391/1/4 390/1/4 392/1/4
f 393/1/4 394/1/4 395/1/4
f 395/1/4 394/1/4 396/1/4
f 397/1/4 398/1/4 399/1/4
f 399/1/4 398/1/4 400/1/4
f 401/1/4 402/1/4 403/1/4
f 403/1/4 402/1/4 404/1/4
f 407/1/4 408/1/4 409/1/4
f 409/1/4 408/1/4 410/1/4
f 405/4/4 406/4/4 411/4/4
f 411/4/4 406/4/4 412/4/4
f 413/3/4 414/3/4 415/3/4
f 415/3/4 414/3/4 416/3/4
f 416/3/4 414/3/4 417/3/4
f 418/1/4 419/1/4 420/1/4
f 420/1/4 419/1/4 421/1/4
f 417/3/4 414/3/4 424/3/4
f 422/3/4 423/3/4 425/3/4
f 423/3/4 424/3/4 425/3/4
f 424/3/4 414/3/4 426/3/4
f 425/3/4 424/3/4 426/3/4
f 427/1/4 428/1/4 429/1/4
f 429/1/4 428/1/4 430/1/4
f 431/1/4 432/1/4 433/1/4
f 433/1/4 432/1/4 434/1/4
f 435/3/4 436/3/4 438/3/4
f 436/2/4 437/2/4 439/2/4
f 438/3/4 436/3/4 439/3/4
f 439/2/4 437/2/4 440/2/4
f 444/3/5 442/3/5 441/3/5
f 445/3/5 442/3/5 444/3/5
f 447/3/5 444/3/5 443/3/5
f 447/3/5 446/3/5 445/3/5
f 447/3/5 445/3/5 444/3/5
f 448/3/5 446/3/5 447/3/5
f 449/3/5 446/3/5 448/3/5
f 450/3/5 446/3/5 449/3/5
f 452/3/5 449/3/5 448/3/5
f 453/3/5 449/3/5 452/3/5
f 455/3/5 452/3/5 451/3/5
f 455/3/5 454/3/5 453/3/5
f 455/3/5 453/3/5 452/3/5
f 456/3/5 454/3/5 455/3/5
f 457/3/5 454/3/5 456/3/5
f 458/3/5 454/3/5 457/3/5
f 459/3/5 457/3/5 456/3/5
f 460/3/5 457/3/5 459/3/5
f 463/1/5 462/1/5 461/1/5
f 464/1/5 462/1/5 463/1/5
f 467/1/5 466/1/5 465/1/5
f 468/1/5 466/1/5 467/1/5
f 471/1/5 470/1/5 469/1/5
f 472/1/5 470/1/5 471/1/5
f 475/1/5 474/1/5 473/1/5
f 476/1/5 474/1/5 475/1/5
f 479/1/5 478/1/5 477/1/5
f 480/1/5 478/1/5 479/1/5
f 483/1/5 482/1/5 481/1/5
f 484/1/5 482/1/5 483/1/5
f 487/1/5 486/1/5 485/1/5
f 488/1/5 486/1/5 487/1/5
f 491/1/5 490/1/5 489/1/5
f 492/1/5 490/1/5 491/1/5
f 495/1/5 494/1/5 493/1/5
f 496/1/5 494/1/5 495/1/5
f 499/1/5 498/1/5 497/1/5
f 500/1/5 498/1/5 499/1/5
f 503/1/5 502/1/5 501/1/5
f 504/1/5 502/1/5 503/1/5
f 507/1/5 506/1/5 505/1/5
f 508/1/5 506/1/5 507/1/5
f 511/1/5 510/1/5 509/1/5
f 512/1/5 510/1/5 511/1/5
f 515/1/5 514/1/5 513/1/5
f 516/1/5 514/1/5 515/1/5
f 519/1/5 518/1/5 517/1/5
f 520/1/5 518/1/5 519/1/5
f 523/1/5 522/1/5 521/1/5
f 524/1/5 522/1/5 523/1/5
f 527/1/5 526/1/5 525/1/5
f 528/1/5 526/1/5 527/1/5
f 529/2/6 530/2/6 531/2/6
f 531/2/6 530/2/6 532/2/6
f 533/2/6 534/2/6 537/2/6
f 537/2/6 534/2/6 538/2/6
f 535/2/6 536/2/6 539/2/6
f 539/2/6 536/2/6 540/2/6
f 541/2/6 542/2/6 543/2/6
f 543/2/6 542/2/6 544/2/6
f 545/3/6 546/3/6 547/3/6
f 547/3/6 546/3/6 548/3/6
f 548/3/6 546/3/6 549/3/6
f 549/3/6 546/3/6 550/3/6
f 550/3/6 546/3/6 551/3/6
f 551/3/6 546/3/6 552/3/6
f 548/3/6 549/3/6 554/3/6
f 554/3/6 549/3/6 555/3/6
f 550/3/6 551/3/6 556/3/6
f 556/3/6 551/3/6 557/3/6
f 554/3/6 555/3/6 559/3/6
f 557/3/6 558/3/6 559/3/6
f 556/3/6 557/3/6 559/3/6
f 555/3/6 556/3/6 559/3/6
f 553/3/6 554/3/6 559/3/6
f 559/3/6 558/3/6 560/3/6
f 561/4/6 562/4/6 563/4/6
f 563/4/6 562/4/6 564/4/6
f 561/4/6 563/4/6 565/4/6
f 565/4/6 563/4/6 566/4/6
f 564/4/6 562/4/6 567/4/6
f 567/4/6 562/4/6 568/4/6
f 561/4/6 565/4/6 569/4/6
f 568/4/6 562/4/6 570/4/6
f 561/4/6 569/4/6 571/4/6
f 569/4/6 570/4/6 571/4/6
f 570/4/6 562/4/6 572/4/6
f 571/4/6 570/4/6 572/4/6
f 573/1/6 574/1/6 576/1/6
f 576/1/6 574/1/6 577/1/6
f 575/1/6 576/1/6 579/1/6
f 577/1/6 578/1/6 579/1/6
f 576/1/6 577/1/6 579/1/6
f 579/1/6 578/1/6 580/1/6
f 581/1/6 582/1/6 583/1/6
f 583/1/6 582/1/6 584/1/6
f 585/1/6 586/1/6 587/1/6
f 587/1/6 586/1/6 588/1/6
f 589/1/6 590/1/6 591/1/6
f 591/1/6 590/1/6 592/1/6
f 593/1/6 594/1/6 595/1/6
f 595/1/6 594/1/6 596/1/6
f 597/1/6 598/1/6 599/1/6
f 599/1/6 598/1/6 600/1/6
f 601/1/6 602/1/6 603/1/6
f 603/1/6 602/1/6 604/1/6
f 605/1/6 606/1/6 607/1/6
f 607/1/6 606/1/6 608/1/6
f 609/1/6 610/1/6 611/1/6
f 611/1/6 610/1/6 612/1/6
f 613/1/6 614/1/6 615/1/6
f 615/1/6 614/1/6 616/1/6
f 617/1/6 618/1/6 619/1/6
f 619/1/6 618/1/6 620/1/6
f 621/1/6 622/1/6 623/1/6
f 623/1/6 622/1/6 624/1/6
f 625/1/6 626/1/6 627/1/6
f 627/1/6 626/1/6 628/1/6
f 629/1/6 630/1/6 631/1/6
f 631/1/6 630/1/6 632/1/6
f 633/1/6 634/1/6 635/1/6
f 635/1/6 634/1/6 636/1/6
f 637/1/6 638/1/6 639/1/6
f 639/1/6 638/1/6 640/1/6
f 641/1/6 642/1/6 643/1/6
f 643/1/6 642/1/6 644/1/6
f 645/1/6 646/1/6 647/1/6
f 647/1/6 646/1/6 648/1/6
