# MagicaVoxel @ Ephtracy

# group
o 

# material
mtllib untitled.mtl
usemtl palette

# normals
vn -1 0 0
vn 1 0 0
vn 0 0 1
vn 0 0 -1
vn 0 -1 0
vn 0 1 0

# texcoords
vt 0.974609 0.5
vt 0.978516 0.5

# verts
v -2 0 0.5
v -2 0 -0.1
v -2 0.1 0.5
v -2 0.1 0.4
v -2 0.1 0
v -2 0.1 -0.1
v -2 3.7 0.4
v -2 3.7 0
v -1.6 0.1 0.3
v -1.6 0.1 0.1
v -1.6 3.1 0.3
v -1.6 3.1 0.1
v -1.3 0.1 0.3
v -1.3 0.1 0.1
v -1.3 3.1 0.3
v -1.3 3.1 0.1
v -1.3 3.3 0.4
v -1.3 3.3 0
v -1.3 3.4 0.4
v -1.3 3.4 0
v -1 0.1 0.3
v -1 0.1 0.1
v -1 3.1 0.3
v -1 3.1 0.1
v -0.8 3.3 0.4
v -0.8 3.3 0
v -0.8 3.4 0.4
v -0.8 3.4 0
v -0.7 0.1 0.3
v -0.7 0.1 0.1
v -0.7 3.1 0.3
v -0.7 3.1 0.1
v -0.4 0.1 0.3
v -0.4 0.1 0.2
v -0.4 0.1 0.1
v -0.4 3.1 0.3
v -0.4 3.1 0.2
v -0.4 3.1 0.1
v -0.3 3.3 0.4
v -0.3 3.3 0
v -0.3 3.4 0.4
v -0.3 3.4 0
v -0.0999999 0.1 0.3
v -0.0999999 0.1 0.1
v -0.0999999 3.1 0.3
v -0.0999999 3.1 0.1
v 0.2 0.1 0.3
v 0.2 0.1 0.1
v 0.2 3.1 0.3
v 0.2 3.1 0.1
v 0.2 3.3 0.4
v 0.2 3.3 0
v 0.2 3.4 0.4
v 0.2 3.4 0
v 0.5 0.1 0.3
v 0.5 0.1 0.1
v 0.5 3.1 0.3
v 0.5 3.1 0.1
v 0.7 3.3 0.4
v 0.7 3.3 0
v 0.7 3.4 0.4
v 0.7 3.4 0
v 0.8 0.1 0.3
v 0.8 0.1 0.1
v 0.8 3.1 0.3
v 0.8 3.1 0.1
v 1.1 0.1 0.3
v 1.1 0.1 0.1
v 1.1 3.1 0.3
v 1.1 3.1 0.1
v 1.2 3.3 0.4
v 1.2 3.3 0
v 1.2 3.4 0.4
v 1.2 3.4 0
v 1.4 0.1 0.3
v 1.4 0.1 0.1
v 1.4 3.1 0.3
v 1.4 3.1 0.1
v 1.6 0 0.5
v 1.6 0 0.4
v 1.6 0 0
v 1.6 0 -0.1
v 1.6 0.1 0.5
v 1.6 0.1 0.4
v 1.6 0.1 0
v 1.6 0.1 -0.1
v 1.7 0.1 0.4
v 1.7 0.1 0
v 1.7 3.1 0.4
v 1.7 3.1 0
v 1.7 3.3 0.4
v 1.7 3.3 0
v 1.7 3.7 0.4
v 1.7 3.7 0
v -1.7 0.1 0.4
v -1.7 0.1 0
v -1.7 3.1 0.4
v -1.7 3.1 0
v -1.7 3.3 0.4
v -1.7 3.3 0
v -1.7 3.7 0.4
v -1.7 3.7 0
v -1.6 0 0.5
v -1.6 0 0.4
v -1.6 0 0
v -1.6 0 -0.1
v -1.6 0.1 0.5
v -1.6 0.1 0.4
v -1.6 0.1 0
v -1.6 0.1 -0.1
v -1.5 0.1 0.3
v -1.5 0.1 0.1
v -1.5 3.1 0.3
v -1.5 3.1 0.1
v -1.2 0.1 0.3
v -1.2 0.1 0.1
v -1.2 3.1 0.3
v -1.2 3.1 0.1
v -1.2 3.3 0.4
v -1.2 3.3 0
v -1.2 3.4 0.4
v -1.2 3.4 0
v -0.9 0.1 0.3
v -0.9 0.1 0.1
v -0.9 3.1 0.3
v -0.9 3.1 0.1
v -0.7 3.3 0.4
v -0.7 3.3 0
v -0.7 3.4 0.4
v -0.7 3.4 0
v -0.6 0.1 0.3
v -0.6 0.1 0.1
v -0.6 3.1 0.3
v -0.6 3.1 0.1
v -0.3 0.1 0.3
v -0.3 0.1 0.2
v -0.3 0.1 0.1
v -0.3 3.1 0.3
v -0.3 3.1 0.2
v -0.3 3.1 0.1
v -0.2 3.3 0.4
v -0.2 3.3 0
v -0.2 3.4 0.4
v -0.2 3.4 0
v 2.38419e-07 0.1 0.3
v 2.38419e-07 0.1 0.1
v 2.38419e-07 3.1 0.3
v 2.38419e-07 3.1 0.1
v 0.3 0.1 0.3
v 0.3 0.1 0.1
v 0.3 3.1 0.3
v 0.3 3.1 0.1
v 0.3 3.3 0.4
v 0.3 3.3 0
v 0.3 3.4 0.4
v 0.3 3.4 0
v 0.6 0.1 0.3
v 0.6 0.1 0.1
v 0.6 3.1 0.3
v 0.6 3.1 0.1
v 0.8 3.3 0.4
v 0.8 3.3 0
v 0.8 3.4 0.4
v 0.8 3.4 0
v 0.9 0.1 0.3
v 0.9 0.1 0.1
v 0.9 3.1 0.3
v 0.9 3.1 0.1
v 1.2 0.1 0.3
v 1.2 0.1 0.1
v 1.2 3.1 0.3
v 1.2 3.1 0.1
v 1.3 3.3 0.4
v 1.3 3.3 0
v 1.3 3.4 0.4
v 1.3 3.4 0
v 1.5 0.1 0.3
v 1.5 0.1 0.1
v 1.5 3.1 0.3
v 1.5 3.1 0.1
v 2 0 0.5
v 2 0 -0.1
v 2 0.1 0.5
v 2 0.1 0.4
v 2 0.1 0
v 2 0.1 -0.1
v 2 3.7 0.4
v 2 3.7 0
v -2 0 0.5
v -2 0.1 0.5
v -1.6 0 0.5
v -1.6 0.1 0.5
v 1.6 0 0.5
v 1.6 0.1 0.5
v 2 0 0.5
v 2 0.1 0.5
v -2 0.1 0.4
v -2 3.7 0.4
v -1.7 0.1 0.4
v -1.7 3.1 0.4
v -1.7 3.3 0.4
v -1.7 3.7 0.4
v -1.6 0 0.4
v -1.6 0.1 0.4
v -1.3 3.3 0.4
v -1.3 3.4 0.4
v -1.2 3.3 0.4
v -1.2 3.4 0.4
v -0.8 3.3 0.4
v -0.8 3.4 0.4
v -0.7 3.3 0.4
v -0.7 3.4 0.4
v -0.3 3.3 0.4
v -0.3 3.4 0.4
v -0.2 3.3 0.4
v -0.2 3.4 0.4
v 0.2 3.3 0.4
v 0.2 3.4 0.4
v 0.3 3.3 0.4
v 0.3 3.4 0.4
v 0.7 3.3 0.4
v 0.7 3.4 0.4
v 0.8 3.3 0.4
v 0.8 3.4 0.4
v 1.2 3.3 0.4
v 1.2 3.4 0.4
v 1.3 3.3 0.4
v 1.3 3.4 0.4
v 1.6 0 0.4
v 1.6 0.1 0.4
v 1.7 0.1 0.4
v 1.7 3.1 0.4
v 1.7 3.3 0.4
v 1.7 3.7 0.4
v 2 0.1 0.4
v 2 3.7 0.4
v -1.6 0.1 0.3
v -1.6 3.1 0.3
v -1.5 0.1 0.3
v -1.5 3.1 0.3
v -1.3 0.1 0.3
v -1.3 3.1 0.3
v -1.2 0.1 0.3
v -1.2 3.1 0.3
v -1 0.1 0.3
v -1 3.1 0.3
v -0.9 0.1 0.3
v -0.9 3.1 0.3
v -0.7 0.1 0.3
v -0.7 3.1 0.3
v -0.6 0.1 0.3
v -0.6 3.1 0.3
v -0.4 0.1 0.3
v -0.4 3.1 0.3
v -0.3 0.1 0.3
v -0.3 3.1 0.3
v -0.0999999 0.1 0.3
v -0.0999999 3.1 0.3
v 2.38419e-07 0.1 0.3
v 2.38419e-07 3.1 0.3
v 0.2 0.1 0.3
v 0.2 3.1 0.3
v 0.3 0.1 0.3
v 0.3 3.1 0.3
v 0.5 0.1 0.3
v 0.5 3.1 0.3
v 0.6 0.1 0.3
v 0.6 3.1 0.3
v 0.8 0.1 0.3
v 0.8 3.1 0.3
v 0.9 0.1 0.3
v 0.9 3.1 0.3
v 1.1 0.1 0.3
v 1.1 3.1 0.3
v 1.2 0.1 0.3
v 1.2 3.1 0.3
v 1.4 0.1 0.3
v 1.4 3.1 0.3
v 1.5 0.1 0.3
v 1.5 3.1 0.3
v -1.6 0.1 0.1
v -1.6 3.1 0.1
v -1.5 0.1 0.1
v -1.5 3.1 0.1
v -1.3 0.1 0.1
v -1.3 3.1 0.1
v -1.2 0.1 0.1
v -1.2 3.1 0.1
v -1 0.1 0.1
v -1 3.1 0.1
v -0.9 0.1 0.1
v -0.9 3.1 0.1
v -0.7 0.1 0.1
v -0.7 3.1 0.1
v -0.6 0.1 0.1
v -0.6 3.1 0.1
v -0.4 0.1 0.1
v -0.4 3.1 0.1
v -0.3 0.1 0.1
v -0.3 3.1 0.1
v -0.0999999 0.1 0.1
v -0.0999999 3.1 0.1
v 2.38419e-07 0.1 0.1
v 2.38419e-07 3.1 0.1
v 0.2 0.1 0.1
v 0.2 3.1 0.1
v 0.3 0.1 0.1
v 0.3 3.1 0.1
v 0.5 0.1 0.1
v 0.5 3.1 0.1
v 0.6 0.1 0.1
v 0.6 3.1 0.1
v 0.8 0.1 0.1
v 0.8 3.1 0.1
v 0.9 0.1 0.1
v 0.9 3.1 0.1
v 1.1 0.1 0.1
v 1.1 3.1 0.1
v 1.2 0.1 0.1
v 1.2 3.1 0.1
v 1.4 0.1 0.1
v 1.4 3.1 0.1
v 1.5 0.1 0.1
v 1.5 3.1 0.1
v -2 0.1 0
v -2 3.7 0
v -1.7 0.1 0
v -1.7 3.1 0
v -1.7 3.3 0
v -1.7 3.7 0
v -1.6 0 0
v -1.6 0.1 0
v -1.3 3.3 0
v -1.3 3.4 0
v -1.2 3.3 0
v -1.2 3.4 0
v -0.8 3.3 0
v -0.8 3.4 0
v -0.7 3.3 0
v -0.7 3.4 0
v -0.3 3.3 0
v -0.3 3.4 0
v -0.2 3.3 0
v -0.2 3.4 0
v 0.2 3.3 0
v 0.2 3.4 0
v 0.3 3.3 0
v 0.3 3.4 0
v 0.7 3.3 0
v 0.7 3.4 0
v 0.8 3.3 0
v 0.8 3.4 0
v 1.2 3.3 0
v 1.2 3.4 0
v 1.3 3.3 0
v 1.3 3.4 0
v 1.6 0 0
v 1.6 0.1 0
v 1.7 0.1 0
v 1.7 3.1 0
v 1.7 3.3 0
v 1.7 3.7 0
v 2 0.1 0
v 2 3.7 0
v -2 0 -0.1
v -2 0.1 -0.1
v -1.6 0 -0.1
v -1.6 0.1 -0.1
v 1.6 0 -0.1
v 1.6 0.1 -0.1
v 2 0 -0.1
v 2 0.1 -0.1
v -2 0 0.5
v -1.6 0 0.5
v 1.6 0 0.5
v 2 0 0.5
v -1.6 0 0.4
v 1.6 0 0.4
v -1.6 0 0
v 1.6 0 0
v -2 0 -0.1
v -1.6 0 -0.1
v 1.6 0 -0.1
v 2 0 -0.1
v -1.7 3.1 0.4
v 1.7 3.1 0.4
v -1.6 3.1 0.3
v -1.5 3.1 0.3
v -1.3 3.1 0.3
v -1.2 3.1 0.3
v -1 3.1 0.3
v -0.9 3.1 0.3
v -0.7 3.1 0.3
v -0.6 3.1 0.3
v -0.4 3.1 0.3
v -0.3 3.1 0.3
v -0.0999999 3.1 0.3
v 2.38419e-07 3.1 0.3
v 0.2 3.1 0.3
v 0.3 3.1 0.3
v 0.5 3.1 0.3
v 0.6 3.1 0.3
v 0.8 3.1 0.3
v 0.9 3.1 0.3
v 1.1 3.1 0.3
v 1.2 3.1 0.3
v 1.4 3.1 0.3
v 1.5 3.1 0.3
v -0.4 3.1 0.2
v -0.3 3.1 0.2
v -1.6 3.1 0.1
v -1.5 3.1 0.1
v -1.3 3.1 0.1
v -1.2 3.1 0.1
v -1 3.1 0.1
v -0.9 3.1 0.1
v -0.7 3.1 0.1
v -0.6 3.1 0.1
v -0.4 3.1 0.1
v -0.3 3.1 0.1
v -0.0999999 3.1 0.1
v 2.38419e-07 3.1 0.1
v 0.2 3.1 0.1
v 0.3 3.1 0.1
v 0.5 3.1 0.1
v 0.6 3.1 0.1
v 0.8 3.1 0.1
v 0.9 3.1 0.1
v 1.1 3.1 0.1
v 1.2 3.1 0.1
v 1.4 3.1 0.1
v 1.5 3.1 0.1
v -1.7 3.1 0
v 1.7 3.1 0
v -2 0.1 0.5
v -1.6 0.1 0.5
v 1.6 0.1 0.5
v 2 0.1 0.5
v -2 0.1 0.4
v -1.7 0.1 0.4
v -1.6 0.1 0.4
v 1.6 0.1 0.4
v 1.7 0.1 0.4
v 2 0.1 0.4
v -1.6 0.1 0.3
v -1.5 0.1 0.3
v -1.3 0.1 0.3
v -1.2 0.1 0.3
v -1 0.1 0.3
v -0.9 0.1 0.3
v -0.7 0.1 0.3
v -0.6 0.1 0.3
v -0.4 0.1 0.3
v -0.3 0.1 0.3
v -0.0999999 0.1 0.3
v 2.38419e-07 0.1 0.3
v 0.2 0.1 0.3
v 0.3 0.1 0.3
v 0.5 0.1 0.3
v 0.6 0.1 0.3
v 0.8 0.1 0.3
v 0.9 0.1 0.3
v 1.1 0.1 0.3
v 1.2 0.1 0.3
v 1.4 0.1 0.3
v 1.5 0.1 0.3
v -0.4 0.1 0.2
v -0.3 0.1 0.2
v -1.6 0.1 0.1
v -1.5 0.1 0.1
v -1.3 0.1 0.1
v -1.2 0.1 0.1
v -1 0.1 0.1
v -0.9 0.1 0.1
v -0.7 0.1 0.1
v -0.6 0.1 0.1
v -0.4 0.1 0.1
v -0.3 0.1 0.1
v -0.0999999 0.1 0.1
v 2.38419e-07 0.1 0.1
v 0.2 0.1 0.1
v 0.3 0.1 0.1
v 0.5 0.1 0.1
v 0.6 0.1 0.1
v 0.8 0.1 0.1
v 0.9 0.1 0.1
v 1.1 0.1 0.1
v 1.2 0.1 0.1
v 1.4 0.1 0.1
v 1.5 0.1 0.1
v -2 0.1 0
v -1.7 0.1 0
v -1.6 0.1 0
v 1.6 0.1 0
v 1.7 0.1 0
v 2 0.1 0
v -2 0.1 -0.1
v -1.6 0.1 -0.1
v 1.6 0.1 -0.1
v 2 0.1 -0.1
v -1.7 3.3 0.4
v -1.3 3.3 0.4
v -1.2 3.3 0.4
v -0.8 3.3 0.4
v -0.7 3.3 0.4
v -0.3 3.3 0.4
v -0.2 3.3 0.4
v 0.2 3.3 0.4
v 0.3 3.3 0.4
v 0.7 3.3 0.4
v 0.8 3.3 0.4
v 1.2 3.3 0.4
v 1.3 3.3 0.4
v 1.7 3.3 0.4
v -1.7 3.3 0
v -1.3 3.3 0
v -1.2 3.3 0
v -0.8 3.3 0
v -0.7 3.3 0
v -0.3 3.3 0
v -0.2 3.3 0
v 0.2 3.3 0
v 0.3 3.3 0
v 0.7 3.3 0
v 0.8 3.3 0
v 1.2 3.3 0
v 1.3 3.3 0
v 1.7 3.3 0
v -1.3 3.4 0.4
v -1.2 3.4 0.4
v -0.8 3.4 0.4
v -0.7 3.4 0.4
v -0.3 3.4 0.4
v -0.2 3.4 0.4
v 0.2 3.4 0.4
v 0.3 3.4 0.4
v 0.7 3.4 0.4
v 0.8 3.4 0.4
v 1.2 3.4 0.4
v 1.3 3.4 0.4
v -1.3 3.4 0
v -1.2 3.4 0
v -0.8 3.4 0
v -0.7 3.4 0
v -0.3 3.4 0
v -0.2 3.4 0
v 0.2 3.4 0
v 0.3 3.4 0
v 0.7 3.4 0
v 0.8 3.4 0
v 1.2 3.4 0
v 1.3 3.4 0
v -2 3.7 0.4
v -1.7 3.7 0.4
v 1.7 3.7 0.4
v 2 3.7 0.4
v -2 3.7 0
v -1.7 3.7 0
v 1.7 3.7 0
v 2 3.7 0

# faces
f 3/1/1 2/1/1 1/1/1
f 4/1/1 2/1/1 3/1/1
f 5/1/1 2/1/1 4/1/1
f 6/1/1 2/1/1 5/1/1
f 7/1/1 5/1/1 4/1/1
f 8/1/1 5/1/1 7/1/1
f 11/2/1 10/2/1 9/2/1
f 12/2/1 10/2/1 11/2/1
f 15/2/1 14/2/1 13/2/1
f 16/2/1 14/2/1 15/2/1
f 19/1/1 18/1/1 17/1/1
f 20/1/1 18/1/1 19/1/1
f 23/2/1 22/2/1 21/2/1
f 24/2/1 22/2/1 23/2/1
f 27/1/1 26/1/1 25/1/1
f 28/1/1 26/1/1 27/1/1
f 31/2/1 30/2/1 29/2/1
f 32/2/1 30/2/1 31/2/1
f 36/2/1 34/2/1 33/2/1
f 37/1/1 35/1/1 34/1/1
f 37/2/1 34/2/1 36/2/1
f 38/1/1 35/1/1 37/1/1
f 41/1/1 40/1/1 39/1/1
f 42/1/1 40/1/1 41/1/1
f 45/2/1 44/2/1 43/2/1
f 46/2/1 44/2/1 45/2/1
f 49/2/1 48/2/1 47/2/1
f 50/2/1 48/2/1 49/2/1
f 53/1/1 52/1/1 51/1/1
f 54/1/1 52/1/1 53/1/1
f 57/2/1 56/2/1 55/2/1
f 58/2/1 56/2/1 57/2/1
f 61/1/1 60/1/1 59/1/1
f 62/1/1 60/1/1 61/1/1
f 65/2/1 64/2/1 63/2/1
f 66/2/1 64/2/1 65/2/1
f 69/2/1 68/2/1 67/2/1
f 70/2/1 68/2/1 69/2/1
f 73/1/1 72/1/1 71/1/1
f 74/1/1 72/1/1 73/1/1
f 77/2/1 76/2/1 75/2/1
f 78/2/1 76/2/1 77/2/1
f 83/1/1 80/1/1 79/1/1
f 84/1/1 80/1/1 83/1/1
f 85/1/1 82/1/1 81/1/1
f 86/1/1 82/1/1 85/1/1
f 89/1/1 88/1/1 87/1/1
f 90/1/1 88/1/1 89/1/1
f 93/1/1 92/1/1 91/1/1
f 94/1/1 92/1/1 93/1/1
f 95/1/2 96/1/2 97/1/2
f 97/1/2 96/1/2 98/1/2
f 99/1/2 100/1/2 101/1/2
f 101/1/2 100/1/2 102/1/2
f 103/1/2 104/1/2 107/1/2
f 107/1/2 104/1/2 108/1/2
f 105/1/2 106/1/2 109/1/2
f 109/1/2 106/1/2 110/1/2
f 111/2/2 112/2/2 113/2/2
f 113/2/2 112/2/2 114/2/2
f 115/2/2 116/2/2 117/2/2
f 117/2/2 116/2/2 118/2/2
f 119/1/2 120/1/2 121/1/2
f 121/1/2 120/1/2 122/1/2
f 123/2/2 124/2/2 125/2/2
f 125/2/2 124/2/2 126/2/2
f 127/1/2 128/1/2 129/1/2
f 129/1/2 128/1/2 130/1/2
f 131/2/2 132/2/2 133/2/2
f 133/2/2 132/2/2 134/2/2
f 135/2/2 136/2/2 138/2/2
f 136/1/2 137/1/2 139/1/2
f 138/2/2 136/2/2 139/2/2
f 139/1/2 137/1/2 140/1/2
f 141/1/2 142/1/2 143/1/2
f 143/1/2 142/1/2 144/1/2
f 145/2/2 146/2/2 147/2/2
f 147/2/2 146/2/2 148/2/2
f 149/2/2 150/2/2 151/2/2
f 151/2/2 150/2/2 152/2/2
f 153/1/2 154/1/2 155/1/2
f 155/1/2 154/1/2 156/1/2
f 157/2/2 158/2/2 159/2/2
f 159/2/2 158/2/2 160/2/2
f 161/1/2 162/1/2 163/1/2
f 163/1/2 162/1/2 164/1/2
f 165/2/2 166/2/2 167/2/2
f 167/2/2 166/2/2 168/2/2
f 169/2/2 170/2/2 171/2/2
f 171/2/2 170/2/2 172/2/2
f 173/1/2 174/1/2 175/1/2
f 175/1/2 174/1/2 176/1/2
f 177/2/2 178/2/2 179/2/2
f 179/2/2 178/2/2 180/2/2
f 181/1/2 182/1/2 183/1/2
f 183/1/2 182/1/2 184/1/2
f 184/1/2 182/1/2 185/1/2
f 185/1/2 182/1/2 186/1/2
f 184/1/2 185/1/2 187/1/2
f 187/1/2 185/1/2 188/1/2
f 191/1/3 190/1/3 189/1/3
f 192/1/3 190/1/3 191/1/3
f 195/1/3 194/1/3 193/1/3
f 196/1/3 194/1/3 195/1/3
f 199/1/3 198/1/3 197/1/3
f 200/1/3 198/1/3 199/1/3
f 201/1/3 198/1/3 200/1/3
f 202/1/3 198/1/3 201/1/3
f 205/1/3 201/1/3 200/1/3
f 207/1/3 205/1/3 200/1/3
f 207/1/3 206/1/3 205/1/3
f 208/1/3 206/1/3 207/1/3
f 209/1/3 207/1/3 200/1/3
f 211/1/3 209/1/3 200/1/3
f 211/1/3 210/1/3 209/1/3
f 212/1/3 210/1/3 211/1/3
f 213/1/3 211/1/3 200/1/3
f 215/1/3 213/1/3 200/1/3
f 215/1/3 214/1/3 213/1/3
f 216/1/3 214/1/3 215/1/3
f 217/1/3 215/1/3 200/1/3
f 219/1/3 217/1/3 200/1/3
f 219/1/3 218/1/3 217/1/3
f 220/1/3 218/1/3 219/1/3
f 221/1/3 219/1/3 200/1/3
f 223/1/3 221/1/3 200/1/3
f 223/1/3 222/1/3 221/1/3
f 224/1/3 222/1/3 223/1/3
f 225/1/3 223/1/3 200/1/3
f 227/1/3 225/1/3 200/1/3
f 227/1/3 226/1/3 225/1/3
f 228/1/3 226/1/3 227/1/3
f 229/1/3 204/1/3 203/1/3
f 230/1/3 204/1/3 229/1/3
f 232/1/3 227/1/3 200/1/3
f 233/1/3 227/1/3 232/1/3
f 235/1/3 233/1/3 232/1/3
f 235/1/3 234/1/3 233/1/3
f 235/1/3 232/1/3 231/1/3
f 236/1/3 234/1/3 235/1/3
f 239/2/3 238/2/3 237/2/3
f 240/2/3 238/2/3 239/2/3
f 243/2/3 242/2/3 241/2/3
f 244/2/3 242/2/3 243/2/3
f 247/2/3 246/2/3 245/2/3
f 248/2/3 246/2/3 247/2/3
f 251/2/3 250/2/3 249/2/3
f 252/2/3 250/2/3 251/2/3
f 255/2/3 254/2/3 253/2/3
f 256/2/3 254/2/3 255/2/3
f 259/2/3 258/2/3 257/2/3
f 260/2/3 258/2/3 259/2/3
f 263/2/3 262/2/3 261/2/3
f 264/2/3 262/2/3 263/2/3
f 267/2/3 266/2/3 265/2/3
f 268/2/3 266/2/3 267/2/3
f 271/2/3 270/2/3 269/2/3
f 272/2/3 270/2/3 271/2/3
f 275/2/3 274/2/3 273/2/3
f 276/2/3 274/2/3 275/2/3
f 279/2/3 278/2/3 277/2/3
f 280/2/3 278/2/3 279/2/3
f 281/2/4 282/2/4 283/2/4
f 283/2/4 282/2/4 284/2/4
f 285/2/4 286/2/4 287/2/4
f 287/2/4 286/2/4 288/2/4
f 289/2/4 290/2/4 291/2/4
f 291/2/4 290/2/4 292/2/4
f 293/2/4 294/2/4 295/2/4
f 295/2/4 294/2/4 296/2/4
f 297/1/4 298/1/4 299/1/4
f 299/1/4 298/1/4 300/1/4
f 301/2/4 302/2/4 303/2/4
f 303/2/4 302/2/4 304/2/4
f 305/2/4 306/2/4 307/2/4
f 307/2/4 306/2/4 308/2/4
f 309/2/4 310/2/4 311/2/4
f 311/2/4 310/2/4 312/2/4
f 313/2/4 314/2/4 315/2/4
f 315/2/4 314/2/4 316/2/4
f 317/2/4 318/2/4 319/2/4
f 319/2/4 318/2/4 320/2/4
f 321/2/4 322/2/4 323/2/4
f 323/2/4 322/2/4 324/2/4
f 325/1/4 326/1/4 327/1/4
f 327/1/4 326/1/4 328/1/4
f 328/1/4 326/1/4 329/1/4
f 329/1/4 326/1/4 330/1/4
f 328/1/4 329/1/4 333/1/4
f 328/1/4 333/1/4 335/1/4
f 333/1/4 334/1/4 335/1/4
f 335/1/4 334/1/4 336/1/4
f 328/1/4 335/1/4 337/1/4
f 328/1/4 337/1/4 339/1/4
f 337/1/4 338/1/4 339/1/4
f 339/1/4 338/1/4 340/1/4
f 328/1/4 339/1/4 341/1/4
f 328/1/4 341/1/4 343/1/4
f 341/1/4 342/1/4 343/1/4
f 343/1/4 342/1/4 344/1/4
f 328/1/4 343/1/4 345/1/4
f 328/1/4 345/1/4 347/1/4
f 345/1/4 346/1/4 347/1/4
f 347/1/4 346/1/4 348/1/4
f 328/1/4 347/1/4 349/1/4
f 328/1/4 349/1/4 351/1/4
f 349/1/4 350/1/4 351/1/4
f 351/1/4 350/1/4 352/1/4
f 328/1/4 351/1/4 353/1/4
f 328/1/4 353/1/4 355/1/4
f 353/1/4 354/1/4 355/1/4
f 355/1/4 354/1/4 356/1/4
f 331/1/4 332/1/4 357/1/4
f 357/1/4 332/1/4 358/1/4
f 328/1/4 355/1/4 360/1/4
f 360/1/4 355/1/4 361/1/4
f 360/1/4 361/1/4 363/1/4
f 361/1/4 362/1/4 363/1/4
f 359/1/4 360/1/4 363/1/4
f 363/1/4 362/1/4 364/1/4
f 365/1/4 366/1/4 367/1/4
f 367/1/4 366/1/4 368/1/4
f 369/1/4 370/1/4 371/1/4
f 371/1/4 370/1/4 372/1/4
f 377/1/5 374/1/5 373/1/5
f 378/1/5 376/1/5 375/1/5
f 379/1/5 377/1/5 373/1/5
f 379/1/5 378/1/5 377/1/5
f 380/1/5 376/1/5 378/1/5
f 380/1/5 378/1/5 379/1/5
f 381/1/5 379/1/5 373/1/5
f 382/1/5 379/1/5 381/1/5
f 383/1/5 376/1/5 380/1/5
f 384/1/5 376/1/5 383/1/5
f 387/1/5 386/1/5 385/1/5
f 388/1/5 386/1/5 387/1/5
f 389/1/5 386/1/5 388/1/5
f 390/1/5 386/1/5 389/1/5
f 391/1/5 386/1/5 390/1/5
f 392/1/5 386/1/5 391/1/5
f 393/1/5 386/1/5 392/1/5
f 394/1/5 386/1/5 393/1/5
f 395/1/5 386/1/5 394/1/5
f 396/1/5 386/1/5 395/1/5
f 397/1/5 386/1/5 396/1/5
f 398/1/5 386/1/5 397/1/5
f 399/1/5 386/1/5 398/1/5
f 400/1/5 386/1/5 399/1/5
f 401/1/5 386/1/5 400/1/5
f 402/1/5 386/1/5 401/1/5
f 403/1/5 386/1/5 402/1/5
f 404/1/5 386/1/5 403/1/5
f 405/1/5 386/1/5 404/1/5
f 406/1/5 386/1/5 405/1/5
f 407/1/5 386/1/5 406/1/5
f 408/1/5 386/1/5 407/1/5
f 409/1/5 395/1/5 394/1/5
f 410/1/5 397/1/5 396/1/5
f 411/1/5 387/1/5 385/1/5
f 412/1/5 389/1/5 388/1/5
f 413/1/5 389/1/5 412/1/5
f 414/1/5 391/1/5 390/1/5
f 415/1/5 391/1/5 414/1/5
f 416/1/5 393/1/5 392/1/5
f 417/1/5 393/1/5 416/1/5
f 418/1/5 409/1/5 394/1/5
f 419/1/5 409/1/5 418/1/5
f 420/1/5 397/1/5 410/1/5
f 421/1/5 397/1/5 420/1/5
f 422/1/5 399/1/5 398/1/5
f 423/1/5 399/1/5 422/1/5
f 424/1/5 401/1/5 400/1/5
f 425/1/5 401/1/5 424/1/5
f 426/1/5 403/1/5 402/1/5
f 427/1/5 403/1/5 426/1/5
f 428/1/5 405/1/5 404/1/5
f 429/1/5 405/1/5 428/1/5
f 430/1/5 407/1/5 406/1/5
f 431/1/5 407/1/5 430/1/5
f 432/1/5 386/1/5 408/1/5
f 433/1/5 419/1/5 418/1/5
f 433/1/5 432/1/5 431/1/5
f 433/1/5 431/1/5 430/1/5
f 433/1/5 411/1/5 385/1/5
f 433/1/5 430/1/5 429/1/5
f 433/1/5 429/1/5 428/1/5
f 433/1/5 428/1/5 427/1/5
f 433/1/5 413/1/5 412/1/5
f 433/1/5 426/1/5 425/1/5
f 433/1/5 427/1/5 426/1/5
f 433/1/5 424/1/5 423/1/5
f 433/1/5 415/1/5 414/1/5
f 433/1/5 422/1/5 421/1/5
f 433/1/5 425/1/5 424/1/5
f 433/1/5 420/1/5 419/1/5
f 433/1/5 423/1/5 422/1/5
f 433/1/5 418/1/5 417/1/5
f 433/1/5 421/1/5 420/1/5
f 433/1/5 416/1/5 415/1/5
f 433/1/5 417/1/5 416/1/5
f 433/1/5 414/1/5 413/1/5
f 433/1/5 412/1/5 411/1/5
f 434/1/5 386/1/5 432/1/5
f 434/1/5 432/1/5 433/1/5
f 435/1/6 436/1/6 439/1/6
f 439/1/6 436/1/6 440/1/6
f 440/1/6 436/1/6 441/1/6
f 437/1/6 438/1/6 442/1/6
f 442/1/6 438/1/6 443/1/6
f 443/1/6 438/1/6 444/1/6
f 440/1/6 441/1/6 445/1/6
f 442/1/6 443/1/6 445/1/6
f 441/1/6 442/1/6 445/1/6
f 445/1/6 443/1/6 446/1/6
f 446/1/6 443/1/6 447/1/6
f 447/1/6 443/1/6 448/1/6
f 448/1/6 443/1/6 449/1/6
f 449/1/6 443/1/6 450/1/6
f 450/1/6 443/1/6 451/1/6
f 451/1/6 443/1/6 452/1/6
f 452/1/6 443/1/6 453/1/6
f 453/1/6 443/1/6 454/1/6
f 454/1/6 443/1/6 455/1/6
f 455/1/6 443/1/6 456/1/6
f 456/1/6 443/1/6 457/1/6
f 457/1/6 443/1/6 458/1/6
f 458/1/6 443/1/6 459/1/6
f 459/1/6 443/1/6 460/1/6
f 460/1/6 443/1/6 461/1/6
f 461/1/6 443/1/6 462/1/6
f 462/1/6 443/1/6 463/1/6
f 463/1/6 443/1/6 464/1/6
f 464/1/6 443/1/6 465/1/6
f 465/1/6 443/1/6 466/1/6
f 452/1/6 453/1/6 467/1/6
f 454/1/6 455/1/6 468/1/6
f 440/1/6 445/1/6 469/1/6
f 446/1/6 447/1/6 470/1/6
f 470/1/6 447/1/6 471/1/6
f 448/1/6 449/1/6 472/1/6
f 472/1/6 449/1/6 473/1/6
f 450/1/6 451/1/6 474/1/6
f 474/1/6 451/1/6 475/1/6
f 452/1/6 467/1/6 476/1/6
f 476/1/6 467/1/6 477/1/6
f 468/1/6 455/1/6 478/1/6
f 478/1/6 455/1/6 479/1/6
f 456/1/6 457/1/6 480/1/6
f 480/1/6 457/1/6 481/1/6
f 458/1/6 459/1/6 482/1/6
f 482/1/6 459/1/6 483/1/6
f 460/1/6 461/1/6 484/1/6
f 484/1/6 461/1/6 485/1/6
f 462/1/6 463/1/6 486/1/6
f 486/1/6 463/1/6 487/1/6
f 464/1/6 465/1/6 488/1/6
f 488/1/6 465/1/6 489/1/6
f 466/1/6 443/1/6 490/1/6
f 476/1/6 477/1/6 492/1/6
f 489/1/6 490/1/6 492/1/6
f 488/1/6 489/1/6 492/1/6
f 440/1/6 469/1/6 492/1/6
f 487/1/6 488/1/6 492/1/6
f 486/1/6 487/1/6 492/1/6
f 485/1/6 486/1/6 492/1/6
f 470/1/6 471/1/6 492/1/6
f 483/1/6 484/1/6 492/1/6
f 484/1/6 485/1/6 492/1/6
f 481/1/6 482/1/6 492/1/6
f 472/1/6 473/1/6 492/1/6
f 479/1/6 480/1/6 492/1/6
f 482/1/6 483/1/6 492/1/6
f 477/1/6 478/1/6 492/1/6
f 480/1/6 481/1/6 492/1/6
f 475/1/6 476/1/6 492/1/6
f 478/1/6 479/1/6 492/1/6
f 473/1/6 474/1/6 492/1/6
f 474/1/6 475/1/6 492/1/6
f 471/1/6 472/1/6 492/1/6
f 469/1/6 470/1/6 492/1/6
f 492/1/6 490/1/6 493/1/6
f 490/1/6 443/1/6 494/1/6
f 493/1/6 490/1/6 494/1/6
f 494/1/6 443/1/6 495/1/6
f 492/1/6 493/1/6 497/1/6
f 491/1/6 492/1/6 497/1/6
f 497/1/6 493/1/6 498/1/6
f 495/1/6 496/1/6 499/1/6
f 494/1/6 495/1/6 499/1/6
f 499/1/6 496/1/6 500/1/6
f 501/1/6 502/1/6 515/1/6
f 515/1/6 502/1/6 516/1/6
f 503/1/6 504/1/6 517/1/6
f 517/1/6 504/1/6 518/1/6
f 505/1/6 506/1/6 519/1/6
f 519/1/6 506/1/6 520/1/6
f 507/1/6 508/1/6 521/1/6
f 521/1/6 508/1/6 522/1/6
f 509/1/6 510/1/6 523/1/6
f 523/1/6 510/1/6 524/1/6
f 511/1/6 512/1/6 525/1/6
f 525/1/6 512/1/6 526/1/6
f 513/1/6 514/1/6 527/1/6
f 527/1/6 514/1/6 528/1/6
f 529/1/6 530/1/6 541/1/6
f 541/1/6 530/1/6 542/1/6
f 531/1/6 532/1/6 543/1/6
f 543/1/6 532/1/6 544/1/6
f 533/1/6 534/1/6 545/1/6
f 545/1/6 534/1/6 546/1/6
f 535/1/6 536/1/6 547/1/6
f 547/1/6 536/1/6 548/1/6
f 537/1/6 538/1/6 549/1/6
f 549/1/6 538/1/6 550/1/6
f 539/1/6 540/1/6 551/1/6
f 551/1/6 540/1/6 552/1/6
f 553/1/6 554/1/6 557/1/6
f 557/1/6 554/1/6 558/1/6
f 555/1/6 556/1/6 559/1/6
f 559/1/6 556/1/6 560/1/6
